<?xml version="1.0" standalone="no"?>
<!DOCTYPE svg PUBLIC "-//W3C//DTD SVG 1.1//EN" "http://www.w3.org/Graphics/SVG/1.1/DTD/svg11.dtd" >
<svg xmlns="http://www.w3.org/2000/svg">
<metadata>Generated by IcoMoon</metadata>
<defs>
<font id="icomoon" horiz-adv-x="1024">
<font-face units-per-em="1024" ascent="960" descent="-64" />
<missing-glyph horiz-adv-x="1024" />
<glyph unicode="&#x20;" d="" horiz-adv-x="512" />
<glyph unicode="&#xe600;" d="M512.043 909.312c123.392 0 239.445-48.128 326.699-135.637 86.741-87.125 134.571-202.709 134.571-325.589 0-123.051-47.659-238.549-134.571-325.632-87.083-87.467-203.349-135.808-326.699-135.808-123.563 0-239.531 48.171-326.699 135.808-86.827 87.083-134.656 202.581-134.656 325.632 0 122.752 47.787 238.507 134.613 325.589 87.168 87.509 203.221 135.637 326.741 135.637zM512.085 960c-282.837 0-512.085-229.333-512.085-512 0-282.837 229.248-512 512.085-512 282.667 0 511.915 229.163 511.915 512 0 282.667-229.248 512-511.915 512v0zM768.853 401.963l-211.584-211.584c-25.344-25.259-66.773-25.259-92.032 0l-211.627 211.584c-25.259 25.344-25.259 66.731 0 92.032l211.584 211.627c25.301 25.216 66.688 25.216 92.075 0l95.488-95.573-143.531-143.573-67.541 67.669c-9.387 9.472-22.485 14.891-35.84 14.891-13.397 0-26.411-5.419-35.84-14.763l-43.349-43.307c-9.6-9.6-14.933-22.315-14.933-35.883 0-13.611 5.333-26.283 14.891-35.84l146.56-146.816c6.571-6.656 14.976-11.349 24.064-13.44l2.091-1.408 9.856-0.043c13.525 0 26.368 5.248 35.883 14.805l222.72 222.763 1.024-0.981c25.259-25.429 25.259-66.816 0.043-92.16zM784.043 558.336l-262.912-263.083c-3.499-3.328-8.107-5.291-13.013-5.291v0c-0.085 0-0.128 0-0.171 0-0.683 0-1.408 0.043-2.048 0.171-4.096 0.427-7.851 2.304-10.795 5.12l-146.517 146.901c-7.168 7.125-7.083 18.645 0 25.728l43.307 43.264c3.413 3.371 8.107 5.291 12.843 5.333 4.864 0 9.515-1.963 12.885-5.376l90.539-90.709 206.933 206.933c3.456 3.456 8.021 5.333 12.885 5.333s9.429-1.877 12.928-5.333l43.221-43.307c6.997-7.040 6.997-18.603-0.085-25.685z" />
<glyph unicode="&#xe601;" d="M512.043 909.312c123.392 0 239.445-48.128 326.699-135.637 86.741-87.125 134.571-202.709 134.571-325.589 0-123.051-47.659-238.549-134.571-325.632-87.083-87.467-203.349-135.808-326.699-135.808-123.563 0-239.531 48.171-326.699 135.808-86.827 87.083-134.656 202.581-134.656 325.632 0 122.752 47.787 238.507 134.613 325.589 87.168 87.509 203.221 135.637 326.741 135.637zM512.085 960c-282.837 0-512.085-229.333-512.085-512 0-282.837 229.248-512 512.085-512 282.667 0 511.915 229.163 511.915 512 0 282.667-229.248 512-511.915 512v0zM535.040 489.643l28.587-15.915 45.312 15.275v30.677c0 52.992-44.288 94.208-96.896 94.208-52.48 0-96.981-38.528-96.981-93.611 0-55.040 0-140.331 0-140.331 0-12.757-10.325-22.997-22.997-22.997-12.715 0-22.997 10.24-22.997 22.997v59.435h-74.368c0 0 0-59.52 0-60.288 0-53.589 43.477-97.067 97.152-97.067 53.205 0 96.384 42.752 97.152 95.744v138.581c0 12.715 10.325 22.997 23.040 22.997 12.672 0 22.997-10.283 22.997-22.997v-26.709zM655.019 439.424v-62.208c0-12.757-10.368-22.997-23.040-22.997-12.715 0-22.997 10.24-22.997 22.997v61.013l-45.312-15.232-28.587 15.915v-60.544c0.469-53.248 43.691-96.256 97.152-96.256 53.589 0 97.067 43.52 97.067 97.067 0 0.768 0 60.288 0 60.288l-74.283-0.043z" />
<glyph unicode="&#xe602;" d="M512.043 909.312c123.392 0 239.445-48.128 326.699-135.637 86.741-87.125 134.571-202.709 134.571-325.589 0-123.051-47.659-238.549-134.571-325.632-87.083-87.467-203.349-135.808-326.699-135.808-123.563 0-239.531 48.171-326.699 135.808-86.827 87.083-134.656 202.581-134.656 325.632 0 122.752 47.787 238.507 134.613 325.589 87.168 87.509 203.221 135.637 326.741 135.637zM512.085 960c-282.837 0-512.085-229.333-512.085-512 0-282.837 229.248-512 512.085-512 282.667 0 511.915 229.163 511.915 512 0 282.667-229.248 512-511.915 512v0zM728.363 408.789c2.261 12.672 3.541 25.728 3.541 39.040 0 123.605-100.267 223.787-223.829 223.787-14.123 0-27.819-1.365-41.216-3.84-19.755 12.032-42.965 18.901-67.797 18.901-72.149 0-130.645-58.453-130.645-130.603 0-25.131 7.125-48.64 19.456-68.523-2.347-12.928-3.584-26.155-3.584-39.765 0-123.563 100.224-223.744 223.829-223.744 14.336 0 28.373 1.365 41.899 3.925 19.712-11.819 42.752-18.688 67.456-18.688 72.107 0 130.645 58.496 130.645 130.603-0.043 25.301-7.253 48.896-19.755 68.907zM515.968 291.285c-63.744 0-127.787 28.843-127.445 78.635 0.085 15.019 11.349 28.757 26.24 28.757 37.504 0 37.205-55.765 96.939-55.765 41.856 0 56.192 22.912 56.192 38.741 0 57.643-181.205 22.315-181.205 130.645 0 58.539 48.128 98.987 123.776 94.549 72.192-4.267 114.432-36.011 118.613-65.621 2.005-19.371-10.965-34.475-33.28-34.475-32.597 0-35.968 43.563-92.16 43.563-25.387 0-46.805-10.539-46.805-33.408 0-47.787 180.053-20.053 180.053-125.227 0.043-60.629-48.469-100.395-120.917-100.395z" />
<glyph unicode="&#xe603;" d="M512.043 909.312c123.392 0 239.445-48.128 326.699-135.637 86.741-87.125 134.571-202.709 134.571-325.589 0-123.051-47.659-238.549-134.571-325.632-87.083-87.467-203.349-135.808-326.699-135.808-123.563 0-239.531 48.171-326.699 135.808-86.827 87.083-134.656 202.581-134.656 325.632 0 122.752 47.787 238.507 134.613 325.589 87.168 87.509 203.221 135.637 326.741 135.637zM512.085 960c-282.837 0-512.085-229.333-512.085-512 0-282.837 229.248-512 512.085-512 282.667 0 511.915 229.163 511.915 512 0 282.667-229.248 512-511.915 512v0zM452.48 336.768c0-28.373-23.083-51.413-51.584-51.413-28.459 0-51.541 23.040-51.541 51.413 0 28.416 23.125 51.328 51.541 51.328 28.501 0 51.584-22.912 51.584-51.328zM349.355 535.851v-76.203c96-0.981 173.909-78.549 174.891-174.293h76.373c-1.024 137.899-112.939 249.472-251.264 250.496zM349.355 589.141c81.109-0.341 157.355-32 214.827-89.216 57.515-57.301 89.259-133.461 89.429-214.571h76.501c-0.512 209.493-170.667 379.307-380.757 379.989v-76.203z" />
<glyph unicode="&#xe604;" d="M512.043 909.312c123.349 0 239.445-48.128 326.699-135.637 86.741-87.125 134.571-202.709 134.571-325.589 0-123.051-47.659-238.549-134.571-325.632-87.083-87.424-203.349-135.765-326.699-135.765-123.563 0-239.531 48.171-326.699 135.765-86.827 87.083-134.656 202.581-134.656 325.632 0 122.752 47.787 238.507 134.613 325.589 87.168 87.509 203.221 135.637 326.741 135.637zM512.085 960c-282.837 0-512.085-229.333-512.085-512 0-282.837 229.248-512 512.085-512 282.667 0 511.915 229.163 511.915 512 0 282.667-229.248 512-511.915 512v0zM535.211 672.896c-132.053 0-198.656-92.928-198.656-170.411 0-46.933 18.091-88.661 56.917-104.192 6.357-2.603 12.075-0.085 13.909 6.827 1.28 4.821 4.352 16.853 5.675 21.845 1.835 6.869 1.109 9.259-4.011 15.189-11.179 12.971-11.733 30.037-11.733 53.803 0 68.907 45.952 130.347 130.261 130.347 74.624 0 115.669-44.757 115.669-104.576 0-78.635-35.499-144.981-88.107-144.981-29.099 0-50.859 23.595-43.904 52.48 8.363 34.645 24.576 71.893 24.576 96.853 0 22.315-12.203 40.917-37.504 40.917-29.739 0-53.589-30.208-53.589-70.613 0-25.728 8.875-43.136 8.875-43.136s-37.589-129.792-42.923-151.936c-10.624-44.16 5.547-94.891 6.315-100.352 0.469-3.243 4.693-4.053 6.571-1.536 2.773 3.499 38.187 46.421 50.219 89.216 3.456 12.16 19.541 74.965 19.541 74.965 9.685-17.963 37.888-33.92 67.925-33.92 89.301 0 149.973 79.915 149.973 186.923 0 80.939-69.845 156.288-176 156.288z" />
<glyph unicode="&#xe605;" d="M512.043 909.312c123.392 0 239.445-48.128 326.699-135.637 86.741-87.125 134.571-202.709 134.571-325.589 0-123.051-47.659-238.549-134.571-325.632-87.083-87.467-203.349-135.808-326.699-135.808-123.563 0-239.531 48.171-326.699 135.808-86.827 87.083-134.656 202.581-134.656 325.632 0 122.752 47.787 238.507 134.613 325.589 87.168 87.509 203.221 135.637 326.741 135.637zM512.085 960c-282.837 0-512.085-229.333-512.085-512 0-282.837 229.248-512 512.085-512 282.667 0 511.915 229.163 511.915 512 0 282.667-229.248 512-511.915 512v0zM580.48 404.352l-65.835-62.165-64.725 61.056-125.824-127.104 387.499-0.171-131.115 128.384zM320.64 578.219l194.347-200.619 190.933 198.656-385.28 1.963zM600.277 426.155l126.592-131.883-0.427 259.499-126.165-127.616zM302.976 297.131l125.269 128.597-125.909 129.621 0.64-258.219z" />
<glyph unicode="&#xe606;" d="M512.043 909.312c123.392 0 239.445-48.128 326.699-135.637 86.741-87.125 134.571-202.709 134.571-325.589 0-123.051-47.659-238.549-134.571-325.632-87.083-87.467-203.349-135.808-326.699-135.808-123.563 0-239.531 48.171-326.699 135.808-86.827 87.083-134.656 202.581-134.656 325.632 0 122.752 47.787 238.507 134.613 325.589 87.168 87.509 203.221 135.637 326.741 135.637zM512.085 960c-282.837 0-512.085-229.333-512.085-512 0-282.837 229.248-512 512.085-512 282.667 0 511.915 229.163 511.915 512 0 282.667-229.248 512-511.915 512v0zM426.368 628.907c0-26.197-21.12-47.445-47.104-47.445s-47.061 21.248-47.061 47.445c0 26.197 21.077 47.445 47.061 47.445s47.104-21.248 47.104-47.445zM412.245 547.797h-72.32v-257.109h72.32v257.109zM539.179 547.797h-61.227l-0.896-257.109h69.675c0 0 0 95.403 0 134.997 0 36.139 30.72 57.813 62.592 57.813 29.227 0 29.227-20.821 29.227-57.813 0-37.035 0-134.997 0-134.997h72.832c0 0 0.896 95.019 0.896 163.883 0 68.907-34.176 96.768-88.789 96.768-54.4 0-76.757-38.144-76.757-38.144v34.603h-7.552z" />
<glyph unicode="&#xe607;" d="M512.043 909.312c123.392 0 239.445-48.128 326.699-135.637 86.741-87.125 134.571-202.709 134.571-325.589 0-123.051-47.659-238.549-134.571-325.632-87.083-87.467-203.349-135.808-326.699-135.808-123.563 0-239.531 48.171-326.699 135.808-86.827 87.083-134.656 202.581-134.656 325.632 0 122.752 47.787 238.507 134.613 325.589 87.168 87.509 203.221 135.637 326.741 135.637zM512.085 960c-282.837 0-512.085-229.333-512.085-512 0-282.837 229.248-512 512.085-512 282.667 0 511.915 229.163 511.915 512 0 282.667-229.248 512-511.915 512v0zM467.627 336.981l-18.773 50.901c0 0-30.421-33.92-76.117-33.92-40.448 0-69.205 35.115-69.205 91.392 0 72.021 36.352 97.835 72.107 97.835 51.541 0 67.883-33.408 82.005-76.16l18.773-58.624c18.688-56.875 53.845-102.443 155.136-102.443 72.661 0 121.813 22.229 121.813 80.896 0 47.36-26.923 72.021-77.312 83.755l-37.504 8.149c-25.771 5.888-33.323 16.427-33.323 33.963 0 19.925 15.829 31.616 41.6 31.616 28.075 0 43.435-10.539 45.653-35.712l58.667 6.997c-4.651 52.736-41.003 74.411-100.736 74.411-52.736 0-104.32-19.925-104.32-83.755 0-39.851 19.328-65.067 68.011-76.757l39.851-9.387c29.824-6.997 39.765-19.371 39.765-36.309 0-21.717-21.077-30.507-60.843-30.507-59.179 0-83.84 31.061-97.835 73.856l-19.371 58.496c-24.576 76.16-63.829 104.277-141.739 104.277-86.144 0-131.797-54.485-131.797-147.029 0-89.003 45.696-137.045 127.744-137.045 66.133 0.085 97.749 31.104 97.749 31.104v0z" />
<glyph unicode="&#xe608;" d="M512.043 909.312c123.392 0 239.445-48.128 326.699-135.637 86.741-87.125 134.571-202.709 134.571-325.589 0-123.051-47.659-238.549-134.571-325.632-87.083-87.467-203.349-135.808-326.699-135.808-123.563 0-239.531 48.171-326.699 135.808-86.827 87.083-134.656 202.581-134.656 325.632 0 122.752 47.787 238.507 134.613 325.589 87.168 87.509 203.221 135.637 326.741 135.637zM512.085 960c-282.837 0-512.085-229.333-512.085-512 0-282.837 229.248-512 512.085-512 282.667 0 511.915 229.163 511.915 512 0 282.667-229.248 512-511.915 512v0zM631.381 490.667h125.355l0.64-191.531c0-53.163-43.563-96.469-97.067-96.469h-296.533c-53.589 0-97.024 43.307-97.024 96.469v191.531l126.592 0.299c-7.893-24.32-7.125-18.133-7.125-45.099 0-69.077 56.192-125.013 125.483-125.013 69.376 0 125.525 55.936 125.525 125.013-0.043 27.008 1.024 15.061-5.845 44.8zM361.515 693.291c0.725 0.043 1.451 0.043 2.176 0.043h15.701zM363.691 693.333h296.533c53.547 0 97.067-43.179 97.067-96.597v-70.101h-149.333c-22.827 23.040-61.44 43.989-96.384 43.989-35.072 0-73.557-19.627-96.299-42.667l-148.608-0.64v69.419c0 32.64 12.672 80.597 72.661 96.597zM701.227 627.499c0 7.552-6.144 13.696-13.696 13.696h-46.507c-7.509 0-13.568-6.144-13.568-13.696v-47.104c0-7.509 6.101-13.739 13.568-13.739h46.507c7.595 0 13.696 6.229 13.696 13.739v47.104zM440.533 445.867c0-39.467 31.957-71.253 71.424-71.253 39.424 0 71.467 31.787 71.467 71.253 0 39.211-32.043 70.955-71.467 70.955-39.509 0-71.424-31.744-71.424-70.955z" />
<glyph unicode="&#xe609;" d="M512.043 909.312c123.392 0 239.445-48.128 326.699-135.637 86.741-87.125 134.571-202.709 134.571-325.589 0-123.051-47.659-238.549-134.571-325.632-87.083-87.467-203.349-135.808-326.699-135.808-123.563 0-239.531 48.171-326.699 135.808-86.827 87.083-134.656 202.581-134.656 325.632 0 122.752 47.787 238.507 134.613 325.589 87.168 87.509 203.221 135.637 326.741 135.637zM512.085 960c-282.837 0-512.085-229.333-512.085-512 0-282.837 229.248-512 512.085-512 282.667 0 511.915 229.163 511.915 512 0 282.667-229.248 512-511.915 512v0zM781.909 524.672h-63.829l0.597-64h-43.989l-0.64 63.317-60.672 0.64-0.725 41.131 61.995 0.213v66.005h43.989v-65.323l63.232-1.323v-40.661zM583.211 319.019c0-41.6-37.973-92.245-133.461-92.245-69.888 0-128.171 30.165-128.171 80.896 0 39.125 24.789 89.856 140.501 89.856-17.152 14.037-21.376 33.621-10.88 54.827-67.755 0-102.443 39.851-102.443 90.453 0 49.493 36.821 94.507 111.872 94.507 18.987 0 120.32 0 120.32 0l-26.88-28.203h-31.616c22.272-12.757 34.133-39.040 34.133-68.011 0-26.624-14.635-48.128-35.456-64.256-37.12-28.672-27.605-44.672 11.221-73.003 38.187-28.8 50.859-50.944 50.859-84.821zM501.376 542.080c-5.12 31.616-30.677 57.557-60.459 58.283-29.867 0.725-49.877-23.467-44.757-55.083 5.163-31.616 33.579-53.675 63.403-54.4 29.781-0.811 47.019 19.584 41.813 51.2zM524.672 312.747c0 24.192-26.667 47.275-71.424 47.275-40.32 0.384-74.581-21.077-74.581-45.995 0-25.387 29.184-46.507 69.504-46.507 51.584 0.043 76.501 19.883 76.501 45.227z" />
<glyph unicode="&#xe60a;" d="M512.043 909.312c123.392 0 239.445-48.128 326.699-135.637 86.741-87.125 134.571-202.709 134.571-325.589 0-123.051-47.659-238.549-134.571-325.632-87.083-87.467-203.349-135.808-326.699-135.808-123.563 0-239.531 48.171-326.699 135.808-86.827 87.083-134.656 202.581-134.656 325.632 0 122.752 47.787 238.507 134.613 325.589 87.168 87.509 203.221 135.637 326.741 135.637zM512.085 960c-282.837 0-512.085-229.333-512.085-512 0-282.837 229.248-512 512.085-512 282.667 0 511.915 229.163 511.915 512 0 282.667-229.248 512-511.915 512v0zM624.555 644.309c-21.12-9.387-43.776-14.549-68.011-15.488-15.317 9.301-33.067 15.616-53.461 15.488-49.963 0-99.627-34.645-101.675-94.251-1.451-41.515 18.304-72.619 51.712-91.691-15.189-7.211-21.248-23.765-21.248-40.021 0-16.213 11.093-33.365 21.504-41.003-35.669-15.232-56.277-37.248-56.277-70.912 0-106.539 224.213-109.227 224.213 4.48 0 41.728-27.989 71.936-97.024 83.456-27.264 3.925-41.728 46.464-1.451 54.229 57.728 9.771 96.469 65.749 76.203 127.232 8.576 1.323 17.109 3.456 25.515 6.485v61.995zM509.312 343.125c31.531 0.555 50.432-8.661 50.731-31.275 0.427-22.187-17.237-32.213-47.488-32.171-33.536 0.043-52.565 9.557-53.205 32.427-0.555 20.907 16.256 30.421 49.963 31.019zM504.619 502.357c-26.581-0.427-38.741 14.592-38.784 43.733 0 26.496 11.819 43.051 38.272 43.221 23.637 0.128 37.888-15.701 38.229-44.757 0.299-29.397-14.635-41.856-37.717-42.197z" />
<glyph unicode="&#xe60b;" d="M512.043 909.312c123.392 0 239.445-48.128 326.699-135.637 86.741-87.125 134.571-202.709 134.571-325.589 0-123.051-47.659-238.549-134.571-325.632-87.083-87.467-203.349-135.808-326.699-135.808-123.563 0-239.531 48.171-326.699 135.808-86.827 87.083-134.656 202.581-134.656 325.632 0 122.752 47.787 238.507 134.613 325.589 87.168 87.509 203.221 135.637 326.741 135.637zM512.085 960c-282.837 0-512.085-229.333-512.085-512 0-282.837 229.248-512 512.085-512 282.667 0 511.915 229.163 511.915 512 0 282.667-229.248 512-511.915 512v0zM569.6 154.155l-124.715 222.165 187.051 331.221h112.981l-187.051-331.221 124.715-222.165zM402.005 606.208h-113.024l62.379-109.099-93.568-167.552h113.024l97.451 167.552z" />
<glyph unicode="&#xe60c;" d="M512.043 909.312c123.392 0 239.445-48.128 326.699-135.637 86.741-87.125 134.571-202.709 134.571-325.589 0-123.051-47.659-238.549-134.571-325.632-87.083-87.467-203.349-135.808-326.699-135.808-123.563 0-239.531 48.171-326.699 135.808-86.827 87.083-134.656 202.581-134.656 325.632 0 122.752 47.787 238.507 134.613 325.589 87.168 87.509 203.221 135.637 326.741 135.637zM512.085 960c-282.837 0-512.085-229.333-512.085-512 0-282.837 229.248-512 512.085-512 282.667 0 511.915 229.163 511.915 512 0 282.667-229.248 512-511.915 512v0zM512.384 397.312c36.864-42.752 79.787-80.085 136.789-80.085 76.843 0 122.581 58.325 122.581 132.523 0 73.984-46.635 128.981-121.899 128.981-60.117 0-99.456-39.040-137.472-85.077-38.997 46.763-77.696 85.077-138.965 85.077-73.259 0-121.173-55.125-121.173-130.389 0-74.795 49.067-131.115 124.288-131.115 64.384 0.043 98.048 40.533 135.851 80.085zM319.573 446.933c0 29.184 18.987 61.013 53.845 61.013 35.584 0 72.235-35.541 96.427-61.696-23.637-27.563-58.155-57.387-94.251-57.387-35.755-0.043-56.021 24.704-56.021 58.069zM554.88 446.208c25.216 27.264 56.448 61.696 93.568 61.696 36.224 0 56.661-28.459 56.661-60.245 0-32.085-18.688-58.837-54.528-58.837-38.272 0-70.528 28.331-95.701 57.387z" />
<glyph unicode="&#xe60d;" d="M512.043 909.312c123.392 0 239.445-48.128 326.699-135.637 86.741-87.125 134.571-202.709 134.571-325.589 0-123.051-47.659-238.549-134.571-325.632-87.083-87.467-203.349-135.808-326.699-135.808-123.563 0-239.531 48.171-326.699 135.808-86.827 87.083-134.656 202.581-134.656 325.632 0 122.752 47.787 238.507 134.613 325.589 87.168 87.509 203.221 135.637 326.741 135.637zM512.085 960c-282.837 0-512.085-229.333-512.085-512 0-282.837 229.248-512 512.085-512 282.667 0 511.915 229.163 511.915 512 0 282.667-229.248 512-511.915 512v0zM275.328 596.864l68.48-0.213 44.373-109.611 37.248 110.037h73.899l-78.464-163.541-2.347-136.149h-63.189l0.213 132.181zM662.613 541.781h65.365v55.083h-193.835v-57.045l65.323 0.64v-242.859h63.147v255.829z" />
<glyph unicode="&#xe60e;" d="M512.043 909.312c123.392 0 239.445-48.128 326.699-135.637 86.741-87.125 134.571-202.709 134.571-325.589 0-123.051-47.659-238.549-134.571-325.632-87.083-87.467-203.349-135.808-326.699-135.808-123.563 0-239.531 48.171-326.699 135.808-86.827 87.083-134.656 202.581-134.656 325.632 0 122.752 47.787 238.507 134.613 325.589 87.168 87.509 203.221 135.637 326.741 135.637zM512.085 960c-282.837 0-512.085-229.333-512.085-512 0-282.837 229.248-512 512.085-512 282.667 0 511.915 229.163 511.915 512 0 282.667-229.248 512-511.915 512v0zM387.157 523.819c10.155 10.155 21.419 18.603 33.408 25.173 66.688 36.736 152.235 17.152 195.072-47.829l-51.883-51.925c-14.976 34.005-51.883 53.248-88.576 45.056-13.824-3.115-27.008-10.027-37.76-20.693l-99.499-99.499c-30.208-30.165-30.208-79.317 0-109.483 30.208-30.251 79.36-30.251 109.525 0l30.677 30.677c27.819-11.051 57.771-15.403 87.296-13.269l-67.712-67.669c-57.984-58.112-152.021-58.112-210.091 0-58.027 57.899-58.027 151.979 0 210.091l99.541 99.371zM545.152 681.771l-67.755-67.584c29.525 2.176 59.52-2.261 87.339-13.355l30.677 30.677c30.251 30.208 79.403 30.208 109.483 0 30.251-30.208 30.251-79.317 0-109.568l-99.413-99.413c-30.251-30.336-79.488-29.995-109.568 0-6.997 6.997-13.013 15.744-16.811 24.235l-51.883-51.797c5.461-8.363 11.179-15.445 18.432-22.699 18.773-18.688 42.667-32.853 70.229-39.424 35.584-8.576 73.856-3.797 106.581 14.293 11.947 6.528 23.253 14.976 33.365 25.131l99.499 99.413c57.856 58.027 57.856 152.149 0 210.091-58.112 58.027-152.192 58.027-210.176 0z" />
<glyph unicode="&#xe60f;" d="M512.043 909.312c123.392 0 239.445-48.128 326.699-135.637 86.741-87.125 134.571-202.709 134.571-325.589 0-123.051-47.659-238.549-134.571-325.632-87.083-87.467-203.349-135.808-326.699-135.808-123.563 0-239.531 48.171-326.699 135.808-86.827 87.083-134.656 202.581-134.656 325.632 0 122.752 47.787 238.507 134.613 325.589 87.168 87.509 203.221 135.637 326.741 135.637zM512.085 960c-282.837 0-512.085-229.333-512.085-512 0-282.837 229.248-512 512.085-512 282.667 0 511.915 229.163 511.915 512 0 282.667-229.248 512-511.915 512v0zM520.875 287.488c12.629 0 17.835 8.491 17.536 18.944-0.512 39.765 14.848 61.141 42.752 33.195 30.891-30.891 37.248-52.181 74.795-52.181 14.165 0 52.437 0 66.347 0 52.139 0 5.675 52.437-31.104 86.443-34.944 32.469-36.523 33.28-6.443 72.32 37.419 48.469 86.229 110.933 42.965 110.933-8.405 0-2.517 0-82.603 0-15.957 0-17.067-9.387-22.784-22.827-20.565-48.64-59.819-111.659-74.752-102.059-15.616 10.027-8.448 44.245-7.211 103.381 0.427 15.616 0.299 26.368-23.637 32-65.323 15.189-121.771-14.635-98.731-18.901 32.64-6.059 29.44-70.912 21.845-101.333-13.227-53.035-62.976 41.984-83.669 89.259-4.992 11.392-6.485 20.565-24.363 20.565-9.813 0-52.992 0-67.541 0-13.013 0-19.413-6.016-14.805-18.048 4.523-12.16 56.747-128.896 118.528-195.584 57.131-61.653 113.579-56.107 152.875-56.107z" />
<glyph unicode="&#xe610;" d="M512.043 909.312c123.392 0 239.445-48.128 326.699-135.637 86.741-87.125 134.571-202.709 134.571-325.589 0-123.051-47.659-238.549-134.571-325.632-87.083-87.467-203.349-135.808-326.699-135.808-123.563 0-239.531 48.171-326.699 135.808-86.827 87.083-134.656 202.581-134.656 325.632 0 122.752 47.787 238.507 134.613 325.589 87.168 87.509 203.221 135.637 326.741 135.637zM512.085 960c-282.837 0-512.085-229.333-512.085-512 0-282.837 229.248-512 512.085-512 282.667 0 511.915 229.163 511.915 512 0 282.667-229.248 512-511.915 512v0zM694.187 518.443c-1.792-38.741-28.885-91.819-81.28-159.232-54.144-70.443-99.968-105.685-137.429-105.685-23.211 0-42.88 21.419-58.923 64.341-10.667 39.339-21.419 78.677-32.085 117.931-11.947 42.88-24.747 64.341-38.4 64.341-2.987 0-13.397-6.272-31.232-18.731l-18.731 24.149c19.627 17.237 39.083 34.56 58.155 51.84 26.197 22.613 45.867 34.56 59.008 35.755 31.019 2.987 50.091-18.219 57.216-63.616 7.808-48.939 13.141-79.403 16.128-91.307 8.917-40.619 18.773-60.928 29.483-60.928 8.363 0 20.821 13.184 37.589 39.552 16.64 26.325 25.643 46.379 26.795 60.203 2.389 22.699-6.485 34.091-26.795 34.091-9.557 0-19.413-2.176-29.483-6.528 19.584 64.171 57.003 95.317 112.171 93.525 40.832-1.195 60.075-27.733 57.813-79.701z" />
<glyph unicode="&#xe611;" d="M512.043 909.312c123.349 0 239.445-48.128 326.699-135.637 86.741-87.125 134.571-202.709 134.571-325.589 0-123.051-47.659-238.549-134.571-325.632-87.083-87.424-203.349-135.765-326.699-135.765-123.563 0-239.531 48.171-326.699 135.765-86.827 87.083-134.656 202.581-134.656 325.632 0 122.752 47.787 238.507 134.613 325.589 87.168 87.509 203.221 135.637 326.741 135.637zM512.085 960c-282.837 0-512.085-229.333-512.085-512 0-282.837 229.248-512 512.085-512 282.667 0 511.915 229.163 511.915 512 0 282.667-229.248 512-511.915 512v0zM738.645 577.92c-16.085-7.637-33.408-12.8-51.669-15.104 18.603 11.904 32.853 30.763 39.509 53.12-17.237-10.965-36.437-18.987-57.003-23.296-16.341 18.688-39.68 30.336-65.493 30.336-57.984 0-100.523-57.856-87.467-117.973-74.581 3.968-140.715 42.24-185.003 100.395-23.467-43.179-12.203-99.669 27.819-128.256-14.72 0.512-28.544 4.821-40.661 12.032-0.981-44.544 28.8-86.229 72.021-95.36-12.629-3.669-26.496-4.565-40.576-1.749 11.477-38.101 44.587-65.877 83.883-66.645-37.76-31.701-85.291-45.824-132.907-39.765 39.723-27.307 86.912-43.221 137.6-43.221 166.741 0 260.821 150.613 255.232 285.781 17.493 13.525 32.725 30.464 44.715 49.707z" />
<glyph unicode="&#xe612;" d="M512.043 909.312c123.392 0 239.445-48.128 326.699-135.637 86.741-87.125 134.571-202.709 134.571-325.589 0-123.051-47.659-238.549-134.571-325.632-87.083-87.467-203.349-135.808-326.699-135.808-123.563 0-239.531 48.171-326.699 135.808-86.827 87.083-134.656 202.581-134.656 325.632 0 122.752 47.787 238.507 134.613 325.589 87.168 87.509 203.221 135.637 326.741 135.637zM512.085 960c-282.837 0-512.085-229.333-512.085-512 0-282.837 229.248-512 512.085-512 282.667 0 511.915 229.163 511.915 512 0 282.667-229.248 512-511.915 512v0zM458.795 646.315c-2.475-20.48-7.040-37.376-13.611-50.645-6.571-13.269-15.275-24.619-26.155-34.048-10.88-9.515-23.893-16.768-39.125-21.845v-56.747h42.624v-139.435c0-18.176 1.835-32.043 5.589-41.643 3.712-9.6 10.411-18.603 20.096-27.093 9.643-8.491 21.291-15.061 34.944-19.669 13.696-4.565 29.397-6.869 47.232-6.869 15.616 0 30.293 1.621 43.691 4.864 13.355 3.2 28.501 8.747 45.141 16.811v62.549c-19.456-13.099-39.083-19.627-58.795-19.627-11.136 0-20.907 2.645-29.525 7.936-6.485 3.925-10.965 9.216-13.397 15.701-2.389 6.571-3.541 21.333-3.541 44.416v102.059h92.416v62.549h-92.416v100.736h-55.168z" />
<glyph unicode="&#xe613;" d="M512.043 909.312c123.392 0 239.445-48.128 326.699-135.637 86.741-87.125 134.571-202.709 134.571-325.589 0-123.051-47.659-238.549-134.571-325.632-87.083-87.467-203.349-135.808-326.699-135.808-123.563 0-239.531 48.171-326.699 135.808-86.827 87.083-134.656 202.581-134.656 325.632 0 122.752 47.787 238.507 134.613 325.589 87.168 87.509 203.221 135.637 326.741 135.637zM512.085 960c-282.837 0-512.085-229.333-512.085-512 0-282.837 229.248-512 512.085-512 282.667 0 511.915 229.163 511.915 512 0 282.667-229.248 512-511.915 512v0zM319.317 473.131c-13.269-13.269-20.565-30.933-20.565-49.621 0-18.731 7.296-36.395 20.565-49.579 13.269-13.312 30.848-20.608 49.621-20.608 38.699 0 70.144 31.531 70.144 70.229 0 38.699-31.445 70.101-70.144 70.101-18.731-0.043-36.352-7.296-49.621-20.523zM605.483 473.131c-13.269-13.269-20.608-30.933-20.608-49.621 0-18.731 7.381-36.395 20.608-49.579 13.227-13.312 30.848-20.608 49.579-20.608 38.656 0 70.187 31.531 70.187 70.229 0 38.699-31.488 70.101-70.187 70.101-18.731-0.043-36.352-7.296-49.579-20.523zM768.128 515.712c5.504 16.384 30.933 41.984 42.539 53.589l-112.896-6.229c-1.621 0.469-3.2 0.811-4.821 1.237-5.163 8.192-40.832 54.187-183.424 54.187-156.459 0-184.149-55.424-184.149-55.424l-116.053 4.907c12.8-12.757 37.675-39.595 43.093-56.875-18.432-24.405-29.483-54.699-29.483-87.637 0-80.555 34.432-136.832 146.005-146.048 47.403-3.925 72.533-3.029 99.371 28.672l43.691-87.424 41.984 87.467c26.795-32.683 51.2-33.024 101.077-28.672 104.917 9.216 146.005 65.493 146.005 146.048 0 34.944-12.373 67.115-32.939 92.203zM369.408 314.496c-59.819 0-108.501 48.725-108.501 108.501 0 59.819 48.683 108.501 108.501 108.501s108.501-48.683 108.501-108.501c0-59.776-48.683-108.501-108.501-108.501zM653.739 316.8c-59.52 0-107.989 48.512-107.989 108.032s48.512 107.989 107.989 107.989c59.563 0 107.989-48.469 107.989-107.989s-48.427-108.032-107.989-108.032z" />
<glyph unicode="&#xe614;" d="M512.043 909.312c123.392 0 239.445-48.128 326.699-135.637 86.741-87.125 134.571-202.709 134.571-325.589 0-123.051-47.659-238.549-134.571-325.632-87.083-87.467-203.349-135.808-326.699-135.808-123.563 0-239.531 48.171-326.699 135.808-86.827 87.083-134.656 202.581-134.656 325.632 0 122.752 47.787 238.507 134.613 325.589 87.168 87.509 203.221 135.637 326.741 135.637zM512.085 960c-282.837 0-512.085-229.333-512.085-512 0-282.837 229.248-512 512.085-512 282.667 0 511.915 229.163 511.915 512 0 282.667-229.248 512-511.915 512v0zM481.408 313.771l-65.408 57.771 17.792 23.125 47.659-21.333 1.237 116.437h42.667l1.835-65.792 53.248 15.147 4.48-26.709-57.387-31.104-0.256-29.696 84.309 28.8 12.459-27.52-100.139-50.688v-72.107h185.472l-206.165 503.381-206.123-503.381h184.32z" />
<glyph unicode="&#xe615;" d="M512.043 909.312c123.349 0 239.445-48.128 326.699-135.637 86.741-87.125 134.571-202.709 134.571-325.589 0-123.051-47.659-238.549-134.571-325.632-87.083-87.424-203.349-135.765-326.699-135.765-123.563 0-239.531 48.171-326.699 135.765-86.827 87.083-134.656 202.581-134.656 325.632 0 122.752 47.787 238.507 134.613 325.589 87.168 87.509 203.221 135.637 326.741 135.637zM512.085 960c-282.837 0-512.085-229.333-512.085-512 0-282.837 229.248-512 512.085-512 282.667 0 511.915 229.163 511.915 512 0 282.667-229.248 512-511.915 512v0zM470.485 520.789h-39.253v-71.808h39.253v-210.944h75.648v211.84h52.736l5.589 70.955h-58.325c0 0 0 26.496 0 40.405 0 16.725 3.029 23.339 17.408 23.339 11.605 0 51.584 2.176 51.584 2.176v71.339c0 0-53.717 0-63.019 0-56.277 0-81.664-27.691-81.664-80.811 0.043-46.208 0.043-56.491 0.043-56.491z" />
<glyph unicode="&#xe616;" d="M512.043 909.312c123.392 0 239.445-48.128 326.699-135.637 86.741-87.125 134.571-202.709 134.571-325.589 0-123.051-47.659-238.549-134.571-325.632-87.083-87.467-203.349-135.808-326.699-135.808-123.563 0-239.531 48.171-326.699 135.808-86.827 87.083-134.656 202.581-134.656 325.632 0 122.752 47.787 238.507 134.613 325.589 87.168 87.509 203.221 135.637 326.741 135.637zM512.085 960c-282.837 0-512.085-229.333-512.085-512 0-282.837 229.248-512 512.085-512 282.667 0 511.915 229.163 511.915 512 0 282.667-229.248 512-511.915 512v0zM512 683.563c-130.091 0-235.563-105.472-235.563-235.563s105.472-235.563 235.563-235.563 235.563 105.472 235.563 235.563-105.472 235.563-235.563 235.563zM706.005 458.965c-50.603 8.277-97.024 8.747-139.392 1.408-4.779 11.093-9.771 22.144-15.061 32.981 45.312 19.627 81.749 46.293 108.885 80.085 26.496-31.232 43.136-70.955 45.568-114.475zM630.528 601.899c-23.595-30.464-56.192-54.613-97.792-72.192-19.968 36.523-42.709 72.107-68.437 106.709 15.232 3.883 31.189 6.187 47.701 6.187 44.672 0 85.76-15.275 118.528-40.704zM424.192 621.397c26.155-34.219 49.28-69.419 69.419-105.643-47.701-14.037-104.661-21.248-170.453-21.675 13.653 55.637 51.115 101.931 101.035 127.317zM317.397 448c0 1.707 0.213 3.371 0.299 5.035 75.477 0.128 140.629 8.832 195.243 25.941 4.565-9.301 8.917-18.688 13.141-28.117-66.304-20.736-120.96-63.189-163.584-127.189-28.117 33.749-45.099 77.141-45.099 124.331zM392.576 294.741c38.656 60.587 87.979 100.053 149.12 118.272 18.176-47.488 31.616-96.427 40.021-146.517-21.632-8.277-45.141-13.056-69.717-13.056-45.056 0-86.4 15.531-119.424 41.301zM619.989 286.293c-8.619 46.123-21.248 91.349-37.632 135.339 36.693 5.248 77.269 3.883 121.643-3.797-8.619-54.699-39.808-101.973-84.011-131.541z" />
<glyph unicode="&#xe617;" d="M512.043 909.312c123.392 0 239.445-48.128 326.699-135.637 86.741-87.125 134.571-202.709 134.571-325.589 0-123.051-47.659-238.549-134.571-325.632-87.083-87.467-203.349-135.808-326.699-135.808-123.563 0-239.531 48.171-326.699 135.808-86.827 87.083-134.656 202.581-134.656 325.632 0 122.752 47.787 238.507 134.613 325.589 87.168 87.509 203.221 135.637 326.741 135.637zM512.085 960c-282.837 0-512.085-229.333-512.085-512 0-282.837 229.248-512 512.085-512 282.667 0 511.915 229.163 511.915 512 0 282.667-229.248 512-511.915 512v0zM508.715 498.688c100.309 2.048 179.712-43.648 192.64-116.395l-103.339 0.768-1.493 63.189c-21.589 10.325-30.251 12.16-53.163 14.421l-1.067-125.312h251.307c-13.013 118.229-132.181 210.773-277.376 210.773-2.517 0-5.035-0.043-7.509-0.085v54.187c-22.827 1.749-38.4 0.768-60.331-10.155l-0.427-50.091c-109.611-25.344-198.443-107.52-209.067-204.629h269.824v163.328zM450.645 384.043l-116.437-2.731c9.088 49.92 68.395 96.555 115.541 110.763l0.896-108.032z" />
<glyph unicode="&#xe618;" d="M512.043 909.312c123.392 0 239.445-48.128 326.699-135.637 86.741-87.125 134.571-202.709 134.571-325.589 0-123.051-47.659-238.549-134.571-325.632-87.083-87.467-203.349-135.808-326.699-135.808-123.563 0-239.531 48.171-326.699 135.808-86.827 87.083-134.656 202.581-134.656 325.632 0 122.752 47.787 238.507 134.613 325.589 87.168 87.509 203.221 135.637 326.741 135.637zM512.085 960c-282.837 0-512.085-229.333-512.085-512 0-282.837 229.248-512 512.085-512 282.667 0 511.915 229.163 511.915 512 0 282.667-229.248 512-511.915 512v0zM677.888 667.093h-331.819c-29.355 0-53.163-23.765-53.163-53.12v-331.861c0-29.355 23.808-53.163 53.163-53.163h331.776c29.397 0 53.205 23.808 53.205 53.163v331.861c0.043 29.355-23.765 53.12-53.163 53.12zM688.555 288.469c0-9.387-7.68-16.981-17.024-16.981h-159.531v176.512h-176.555v159.531c0 9.387 7.595 17.024 16.981 17.024h159.573v-176.555h176.555v-159.531z" />
<glyph unicode="&#xe619;" d="M512.043 909.312c123.392 0 239.445-48.128 326.699-135.637 86.741-87.125 134.571-202.709 134.571-325.589 0-123.051-47.659-238.549-134.571-325.632-87.083-87.467-203.349-135.808-326.699-135.808-123.563 0-239.531 48.171-326.699 135.808-86.827 87.083-134.656 202.581-134.656 325.632 0 122.752 47.787 238.507 134.613 325.589 87.168 87.509 203.221 135.637 326.741 135.637zM512.085 960c-282.837 0-512.085-229.333-512.085-512 0-282.837 229.248-512 512.085-512 282.667 0 511.915 229.163 511.915 512 0 282.667-229.248 512-511.915 512v0zM502.101 563.499c9.259-13.013 13.952-28.672 13.952-46.805 0-18.816-4.736-33.877-14.037-45.269-5.163-6.4-12.843-12.203-23.040-17.536 15.445-5.717 27.051-14.677 34.859-27.093 7.851-12.373 11.776-27.435 11.776-45.099 0-18.091-4.565-34.517-13.44-48.896-5.675-9.515-12.843-17.664-21.333-24.277-9.685-7.381-20.992-12.373-34.091-15.275-13.099-2.688-27.349-4.352-42.581-4.352h-135.851v307.413h145.707c36.693-0.64 62.72-11.563 78.080-32.811zM338.389 542.891v-67.712h73.344c13.056 0 23.68 2.603 31.829 7.637 8.235 5.035 12.288 13.995 12.288 27.008 0 14.208-5.419 23.765-16.256 28.245-9.259 3.285-21.077 4.821-35.541 4.821h-65.664zM338.389 424.32v-81.963h73.216c13.141 0 23.296 1.707 30.549 5.461 13.227 6.784 19.797 19.243 19.797 38.272 0 15.957-6.4 27.093-19.2 33.024-7.168 3.285-17.152 4.992-30.208 5.163l-74.155 0.043zM705.451 512.128c15.573-7.125 28.501-18.347 38.528-33.707 9.216-13.525 15.104-29.269 17.877-47.104 1.451-10.453 2.133-25.429 1.877-45.141h-162.389c0.896-22.912 8.661-38.997 23.424-48.085 8.704-5.589 19.371-8.533 32-8.533 13.269 0 24.107 3.541 32.384 10.496 4.565 3.755 6.485 5.675 10.112 12.288l60.715-0.043c-1.408-13.568-8.192-23.893-20.949-37.717-19.968-22.187-47.787-33.28-83.797-33.28-29.781 0-55.936 9.429-78.592 27.947-22.784 18.688-29.099 49.664-29.099 91.563 0 39.424 5.291 69.333 25.813 90.368 20.437 21.035 47.061 31.531 79.701 31.531 19.413 0.085 36.907-3.456 52.395-10.581zM616.192 466.048c-8.107-8.661-11.264-26.069-13.397-40.875l104.789-1.152c-1.195 15.744-2.56 32.384-14.080 47.488-9.301 8.192-25.728 9.941-39.552 9.941-14.976 0-29.483-6.784-37.76-15.403zM719.531 615.509h-131.029v-47.488h131.029v47.488z" />
<glyph unicode="&#xe61a;" d="M512.043 909.312c123.392 0 239.445-48.128 326.699-135.637 86.741-87.125 134.571-202.709 134.571-325.589 0-123.051-47.659-238.549-134.571-325.632-87.083-87.467-203.349-135.808-326.699-135.808-123.563 0-239.531 48.171-326.699 135.808-86.827 87.083-134.656 202.581-134.656 325.632 0 122.752 47.787 238.507 134.613 325.589 87.168 87.509 203.221 135.637 326.741 135.637zM512.085 960c-282.837 0-512.085-229.333-512.085-512 0-282.837 229.248-512 512.085-512 282.667 0 511.915 229.163 511.915 512 0 282.667-229.248 512-511.915 512v0zM478.123 448c0-52.43-42.503-94.933-94.933-94.933s-94.933 42.503-94.933 94.933c0 52.43 42.503 94.933 94.933 94.933 52.43 0 94.933-42.503 94.933-94.933zM735.744 448c0-52.43-42.503-94.933-94.933-94.933s-94.933 42.503-94.933 94.933c0 52.43 42.503 94.933 94.933 94.933 52.43 0 94.933-42.503 94.933-94.933z" />
<glyph unicode="&#xe61b;" d="M512.043 909.312c123.392 0 239.445-48.128 326.699-135.637 86.741-87.125 134.571-202.709 134.571-325.589 0-123.051-47.659-238.549-134.571-325.632-87.083-87.467-203.349-135.808-326.699-135.808-123.563 0-239.531 48.171-326.699 135.808-86.827 87.083-134.656 202.581-134.656 325.632 0 122.752 47.787 238.507 134.613 325.589 87.168 87.509 203.221 135.637 326.741 135.637zM512.085 960c-282.837 0-512.085-229.333-512.085-512 0-282.837 229.248-512 512.085-512 282.667 0 511.915 229.163 511.915 512 0 282.667-229.248 512-511.915 512v0zM670.848 484.779c20.949-5.333 28.459 9.899 27.307 34.219-0.853 16.853-7.893 27.733-12.117 34.773-10.923 18.432-33.195 30.123-53.547 30.379-3.797 0-7.595-0.299-11.136-1.024-9.771-2.091-21.589-6.229-17.067-24.704 4.949-17.749 32.597-8.021 43.349-14.507 10.837-6.485 13.013-12.715 14.976-24.235 2.219-13.141-8.832-30.549 8.235-34.901zM767.488 533.248c-2.987 34.731-24.832 69.973-51.925 91.947-22.613 18.261-55.595 29.099-85.035 29.269-4.224 0-8.405-0.171-12.416-0.597-16-1.664-32.427-5.205-32.811-23.467-0.299-16.555 12.715-20.096 21.504-19.755 29.611 1.237 55.979 7.509 88.491-22.059 19.883-18.091 35.285-50.347 32.213-70.443-5.931-37.291-11.349-51.243 6.101-56.576 37.419-11.349 36.224 45.611 33.877 71.68zM452.992 428.629c-9.173 0-17.963-1.323-25.429-3.797-55.723-18.176-69.419-65.067-56.661-100.139 12.8-35.072 65.579-49.749 107.819-31.872 42.197 18.005 61.312 60.757 46.379 94.037-13.355 29.909-44.629 41.813-72.107 41.771zM435.584 322.005c-15.232-8.704-33.749-4.736-38.357 4.651-6.485 13.483-3.84 28.416 11.392 37.12 5.717 3.243 11.605 4.693 16.981 4.693 9.088 0 16.896-3.883 20.608-9.856 6.016-9.515 4.651-27.861-10.624-36.608zM468.224 362.667c-5.803-3.029-12.459-1.707-14.805 2.859-2.347 4.651 0.427 10.923 6.272 13.952 2.176 1.152 4.437 1.664 6.613 1.664 3.541-0.085 6.699-1.664 8.192-4.523 2.389-4.651-0.427-10.837-6.272-13.952zM630.101 456.064c-5.547 1.877 22.613 55.552-8.277 70.869-51.925 25.685-122.667-22.699-119.552-9.771 5.803 24.405 18.133 74.496-25.685 76.885-2.987 0.299-6.059 0.384-9.131 0.384-95.872-0.768-230.912-153.301-215.637-235.221 16.555-89.088 125.013-127.531 232.405-124.117 96.896-0.555 231.851 73.344 217.344 158.763-1.621 29.909-34.56 49.835-71.467 62.208zM469.376 265.6c-85.163-7.851-158.421 31.445-163.755 87.723-5.291 56.192 59.435 108.203 144.555 116.053 6.656 0.597 13.227 0.939 19.755 0.981 76.459 0.64 139.093-36.779 144-88.661 5.333-56.235-59.392-108.288-144.555-116.096z" />
</font>
</defs>
</svg>
